<svg width="24" height="24" viewBox="0 0 24 24" fill="none" xmlns="http://www.w3.org/2000/svg">
<g id="Iconly/Bold/Home" opacity="0.5">
<g id="Home">
<path id="Home_2" d="M9.28558 20.7853V17.8885C9.28558 17.149 9.88943 16.5496 10.6343 16.5496H13.3572C13.7149 16.5496 14.058 16.6906 14.3109 16.9417C14.5638 17.1928 14.7059 17.5334 14.7059 17.8885V20.7853C14.7037 21.0927 14.8251 21.3883 15.0433 21.6065C15.2615 21.8247 15.5584 21.9474 15.868 21.9474H17.7257C18.5933 21.9496 19.4262 21.609 20.0405 21.0008C20.6548 20.3925 21 19.5666 21 18.7053V10.4528C21 9.75707 20.6893 9.09711 20.1517 8.65074L13.8322 3.6403C12.7329 2.7618 11.1579 2.79016 10.0914 3.70766L3.91612 8.65074C3.35312 9.08395 3.01663 9.74587 3 10.4528V18.6969C3 20.4921 4.46594 21.9474 6.27427 21.9474H8.08954C8.73274 21.9474 9.25547 21.4322 9.26013 20.7937L9.28558 20.7853Z" fill="white"/>
</g>
</g>
</svg>
