<svg width="24" height="24" viewBox="0 0 24 24" fill="none" xmlns="http://www.w3.org/2000/svg">
<g id="noun-category-1539697 1" opacity="0.5">
<g id="Group 629787">
<path id="Vector" d="M4.8125 2C3.25917 2 2 3.25917 2 4.8125C2 6.36583 3.25917 7.625 4.8125 7.625C6.36583 7.625 7.625 6.36583 7.625 4.8125C7.625 3.25917 6.36583 2 4.8125 2ZM4.53125 3.40625C3.98852 3.40625 3.54688 3.8479 3.54688 4.39062C3.54688 4.46835 3.48397 4.53125 3.40625 4.53125C3.32853 4.53125 3.26562 4.46835 3.26562 4.39062C3.26562 3.69272 3.83334 3.125 4.53125 3.125C4.60897 3.125 4.67188 3.1879 4.67188 3.26562C4.67188 3.34335 4.60897 3.40625 4.53125 3.40625Z" fill="white"/>
<path id="Vector_2" d="M12.4375 2C10.8842 2 9.625 3.25917 9.625 4.8125C9.625 6.36583 10.8842 7.625 12.4375 7.625C13.9908 7.625 15.25 6.36583 15.25 4.8125C15.25 3.25917 13.9908 2 12.4375 2ZM12.1562 3.40625C11.6135 3.40625 11.1719 3.8479 11.1719 4.39062C11.1719 4.46835 11.109 4.53125 11.0312 4.53125C10.9535 4.53125 10.8906 4.46835 10.8906 4.39062C10.8906 3.69272 11.4583 3.125 12.1562 3.125C12.234 3.125 12.2969 3.1879 12.2969 3.26562C12.2969 3.34335 12.234 3.40625 12.1562 3.40625Z" fill="white"/>
<path id="Vector_3" d="M20.0625 2C18.5092 2 17.25 3.25917 17.25 4.8125C17.25 6.36583 18.5092 7.625 20.0625 7.625C21.6158 7.625 22.875 6.36583 22.875 4.8125C22.875 3.25917 21.6158 2 20.0625 2ZM19.7812 3.40625C19.2385 3.40625 18.7969 3.8479 18.7969 4.39062C18.7969 4.46835 18.734 4.53125 18.6562 4.53125C18.5785 4.53125 18.5156 4.46835 18.5156 4.39062C18.5156 3.69272 19.0833 3.125 19.7812 3.125C19.859 3.125 19.9219 3.1879 19.9219 3.26562C19.9219 3.34335 19.859 3.40625 19.7812 3.40625Z" fill="white"/>
<path id="Vector_4" d="M4.8125 9.625C3.25917 9.625 2 10.8842 2 12.4375C2 13.9908 3.25917 15.25 4.8125 15.25C6.36583 15.25 7.625 13.9908 7.625 12.4375C7.625 10.8842 6.36583 9.625 4.8125 9.625ZM4.53125 11.0312C3.98852 11.0312 3.54688 11.4729 3.54688 12.0156C3.54688 12.0933 3.48397 12.1562 3.40625 12.1562C3.32853 12.1562 3.26562 12.0933 3.26562 12.0156C3.26562 11.3177 3.83334 10.75 4.53125 10.75C4.60897 10.75 4.67188 10.8129 4.67188 10.8906C4.67188 10.9683 4.60897 11.0312 4.53125 11.0312Z" fill="white"/>
<path id="Vector_5" d="M12.4375 9.625C10.8842 9.625 9.625 10.8842 9.625 12.4375C9.625 13.9908 10.8842 15.25 12.4375 15.25C13.9908 15.25 15.25 13.9908 15.25 12.4375C15.25 10.8842 13.9908 9.625 12.4375 9.625ZM12.1562 11.0312C11.6135 11.0312 11.1719 11.4729 11.1719 12.0156C11.1719 12.0933 11.109 12.1562 11.0312 12.1562C10.9535 12.1562 10.8906 12.0933 10.8906 12.0156C10.8906 11.3177 11.4583 10.75 12.1562 10.75C12.234 10.75 12.2969 10.8129 12.2969 10.8906C12.2969 10.9683 12.234 11.0312 12.1562 11.0312Z" fill="white"/>
<path id="Vector_6" d="M20.0625 9.625C18.5092 9.625 17.25 10.8842 17.25 12.4375C17.25 13.9908 18.5092 15.25 20.0625 15.25C21.6158 15.25 22.875 13.9908 22.875 12.4375C22.875 10.8842 21.6158 9.625 20.0625 9.625ZM19.7812 11.0312C19.2385 11.0312 18.7969 11.4729 18.7969 12.0156C18.7969 12.0933 18.734 12.1562 18.6562 12.1562C18.5785 12.1562 18.5156 12.0933 18.5156 12.0156C18.5156 11.3177 19.0833 10.75 19.7812 10.75C19.859 10.75 19.9219 10.8129 19.9219 10.8906C19.9219 10.9683 19.859 11.0312 19.7812 11.0312Z" fill="white"/>
<path id="Vector_7" d="M4.8125 17.25C3.25917 17.25 2 18.5092 2 20.0625C2 21.6158 3.25917 22.875 4.8125 22.875C6.36583 22.875 7.625 21.6158 7.625 20.0625C7.625 18.5092 6.36583 17.25 4.8125 17.25ZM4.53125 18.6562C3.98852 18.6562 3.54688 19.0979 3.54688 19.6406C3.54688 19.7183 3.48397 19.7812 3.40625 19.7812C3.32853 19.7812 3.26562 19.7183 3.26562 19.6406C3.26562 18.9427 3.83334 18.375 4.53125 18.375C4.60897 18.375 4.67188 18.4379 4.67188 18.5156C4.67188 18.5933 4.60897 18.6562 4.53125 18.6562Z" fill="white"/>
<path id="Vector_8" d="M12.4375 17.25C10.8842 17.25 9.625 18.5092 9.625 20.0625C9.625 21.6158 10.8842 22.875 12.4375 22.875C13.9908 22.875 15.25 21.6158 15.25 20.0625C15.25 18.5092 13.9908 17.25 12.4375 17.25ZM12.1562 18.6562C11.6135 18.6562 11.1719 19.0979 11.1719 19.6406C11.1719 19.7183 11.109 19.7812 11.0312 19.7812C10.9535 19.7812 10.8906 19.7183 10.8906 19.6406C10.8906 18.9427 11.4583 18.375 12.1562 18.375C12.234 18.375 12.2969 18.4379 12.2969 18.5156C12.2969 18.5933 12.234 18.6562 12.1562 18.6562Z" fill="white"/>
<path id="Vector_9" d="M20.0625 17.25C18.5092 17.25 17.25 18.5092 17.25 20.0625C17.25 21.6158 18.5092 22.875 20.0625 22.875C21.6158 22.875 22.875 21.6158 22.875 20.0625C22.875 18.5092 21.6158 17.25 20.0625 17.25ZM19.7812 18.6562C19.2385 18.6562 18.7969 19.0979 18.7969 19.6406C18.7969 19.7183 18.734 19.7812 18.6562 19.7812C18.5785 19.7812 18.5156 19.7183 18.5156 19.6406C18.5156 18.9427 19.0833 18.375 19.7812 18.375C19.859 18.375 19.9219 18.4379 19.9219 18.5156C19.9219 18.5933 19.859 18.6562 19.7812 18.6562Z" fill="white"/>
</g>
</g>
</svg>
