<svg width="24" height="24" viewBox="0 0 24 24" fill="none" xmlns="http://www.w3.org/2000/svg">
<g id="noun-report-1675831 1">
<path id="Vector" d="M4.61115 2C4.44907 2 4.29362 2.06439 4.179 2.179C4.06439 2.29362 4 2.44907 4 2.61115V20.9458C4 21.1078 4.06439 21.2633 4.179 21.3779C4.29362 21.4925 4.44907 21.5569 4.61115 21.5569H19.3888C19.5509 21.5569 19.7064 21.4925 19.821 21.3779C19.9356 21.2633 20 21.1078 20 20.9458V2.61115C20 2.44907 19.9356 2.29362 19.821 2.179C19.7064 2.06439 19.5509 2 19.3888 2H4.61115ZM10.906 3.57678C12.4532 3.57678 13.9369 4.19137 15.0309 5.28536C16.1249 6.37934 16.7395 7.86311 16.7395 9.41024H10.906V3.57678ZM10.3132 5.8136V10.0031H14.5027C14.3937 10.6646 14.1045 11.2832 13.6667 11.791C13.229 12.2988 12.6597 12.676 12.0215 12.8812C11.3832 13.0864 10.7008 13.1117 10.0491 12.9542C9.39747 12.7967 8.80187 12.4625 8.32781 11.9885C7.85376 11.5144 7.51961 10.9188 7.3621 10.2671C7.20459 9.6155 7.22983 8.93303 7.43505 8.29479C7.64026 7.65656 8.0175 7.08727 8.52527 6.64952C9.03305 6.21178 9.65171 5.92254 10.3132 5.8136ZM16.6203 19.0542H7.37968C7.21759 19.0542 7.06214 18.9898 6.94753 18.8752C6.83291 18.7606 6.76853 18.6052 6.76853 18.4431C6.76853 18.281 6.83291 18.1255 6.94753 18.0109C7.06214 17.8963 7.21759 17.8319 7.37968 17.8319H16.6203C16.7824 17.8319 16.9379 17.8963 17.0525 18.0109C17.1671 18.1255 17.2315 18.281 17.2315 18.4431C17.2315 18.6052 17.1671 18.7606 17.0525 18.8752C16.9379 18.9898 16.7824 19.0542 16.6203 19.0542ZM16.6203 15.9037H7.37968C7.21759 15.9037 7.06214 15.8394 6.94753 15.7247C6.83291 15.6101 6.76853 15.4547 6.76853 15.2926C6.76853 15.1305 6.83291 14.9751 6.94753 14.8604C7.06214 14.7458 7.21759 14.6814 7.37968 14.6814H16.6203C16.7824 14.6814 16.9379 14.7458 17.0525 14.8604C17.1671 14.9751 17.2315 15.1305 17.2315 15.2926C17.2315 15.4547 17.1671 15.6101 17.0525 15.7247C16.9379 15.8394 16.7824 15.9037 16.6203 15.9037Z" fill="white"/>
</g>
</svg>
